<svg width="480" height="146" viewBox="0 0 480 146" fill="none" xmlns="http://www.w3.org/2000/svg">
<g clip-path="url(#clip0_57_169)">
<path d="M160.9 36.81H147.4V108.19H183.09V97.48H160.9V36.81Z" fill="#510A32"/>
<path d="M198.52 36.81C196.58 36.81 194.97 37.43 193.69 38.66C192.41 39.89 191.77 41.42 191.77 43.25C191.77 45.08 192.41 46.61 193.69 47.84C194.97 49.07 196.58 49.69 198.52 49.69C200.46 49.69 202.07 49.08 203.35 47.84C204.63 46.61 205.27 45.08 205.27 43.25C205.27 41.42 204.63 39.89 203.35 38.66C202.07 37.42 200.46 36.81 198.52 36.81Z" fill="#510A32"/>
<path d="M205.18 54.75H191.67V108.19H205.18V54.75Z" fill="#510A32"/>
<path d="M240.77 95.75L227.27 54.75H212.8L232.48 108.19H248.88L268.65 54.75H254.28L240.77 95.75Z" fill="#510A32"/>
<path d="M289.78 63.05V54.75H276.28V108.19H289.78V81.57C289.78 76.62 290.86 73.15 293.01 71.15C295.16 69.16 298.36 68.16 302.61 68.16H306.18V53.98C302.58 53.98 299.38 54.78 296.58 56.39C293.78 58 291.51 60.22 289.78 63.05Z" fill="#510A32"/>
<path d="M352.24 57.16C348.22 54.97 343.67 53.88 338.59 53.88C333.32 53.88 328.65 55.01 324.6 57.26C320.55 59.51 317.4 62.73 315.15 66.91C312.9 71.09 311.77 75.95 311.77 81.48C311.77 86.95 312.91 91.77 315.19 95.95C317.47 100.13 320.66 103.36 324.74 105.64C328.82 107.92 333.44 109.06 338.58 109.06C344.95 109.06 350.32 107.41 354.69 104.09C359.06 100.78 362.02 96.55 363.56 91.41H349C346.88 95.72 343.31 97.87 338.29 97.87C334.82 97.87 331.89 96.78 329.51 94.59C327.13 92.4 325.78 89.38 325.46 85.52H364.53C364.79 83.98 364.92 82.24 364.92 80.31C364.92 75.1 363.81 70.49 361.59 66.47C359.37 62.45 356.25 59.35 352.24 57.16ZM325.56 76.45C326.07 72.85 327.47 70.04 329.76 68.01C332.04 65.98 334.86 64.97 338.2 64.97C341.74 64.97 344.73 66.02 347.17 68.11C349.61 70.2 350.87 72.98 350.93 76.45H325.56Z" fill="#510A32"/>
<path d="M388.26 36.81H374.76V108.19H388.26V36.81Z" fill="#510A32"/>
<path d="M415.08 36.81H401.58V108.19H415.08V36.81Z" fill="#510A32"/>
<path d="M476.38 67C473.97 62.82 470.67 59.59 466.49 57.31C462.31 55.03 457.65 53.89 452.5 53.89C447.35 53.89 442.69 55.03 438.51 57.31C434.33 59.59 431.03 62.83 428.62 67C426.21 71.18 425 76 425 81.47C425 86.94 426.17 91.76 428.52 95.94C430.87 100.12 434.1 103.35 438.21 105.63C442.32 107.91 446.96 109.05 452.1 109.05C457.31 109.05 462.02 107.91 466.23 105.63C470.44 103.35 473.79 100.12 476.26 95.94C478.73 91.76 479.97 86.94 479.97 81.47C480 76.01 478.79 71.18 476.38 67ZM464.18 90.15C462.89 92.53 461.17 94.31 459.02 95.5C456.86 96.69 454.57 97.28 452.12 97.28C448.26 97.28 445.06 95.91 442.52 93.18C439.98 90.45 438.71 86.54 438.71 81.46C438.71 76.38 440.01 72.47 442.62 69.74C445.22 67.01 448.46 65.64 452.31 65.64C456.17 65.64 459.43 67.01 462.1 69.74C464.77 72.47 466.1 76.38 466.1 81.46C466.11 84.88 465.47 87.77 464.18 90.15Z" fill="#510A32"/>
<path d="M47.8 109.11C47.79 109.11 47.79 109.11 47.8 109.11V109.11ZM47.77 87.97V27.54C47.77 26.76 47.36 26.04 46.67 25.65L31.84 17.1L15.92 7.91002L2.63 0.230023C1.46 -0.429978 0 0.400023 0 1.76002V117.57C0 118.19 0.34 118.78 0.88 119.08L15.93 127.78L31.85 136.95V136.96L46.9 145.64C47.18 145.8 47.5 145.88 47.8 145.87V127.5C47.5 127.51 47.18 127.43 46.9 127.27L31.85 118.58L16.8 109.89C16.27 109.59 15.92 109 15.92 108.38V29.33C15.92 27.98 17.38 27.14 18.55 27.81L30.75 34.84C31.42 35.23 31.85 35.95 31.85 36.73V99.2C31.85 99.82 32.19 100.41 32.73 100.71L46.9 108.89C47.18 109.05 47.49 109.12 47.8 109.12V88.22C47.77 88.15 47.77 88.06 47.77 87.97Z" fill="url(#paint0_linear_57_169)"/>
<path d="M102.58 85.95L87.5601 77.29L80.4301 73.18C79.9001 72.86 79.2201 72.86 78.6801 73.18L71.6201 77.24L64.2701 81.49C63.9901 81.65 63.9901 82.05 64.2701 82.21L86.6701 95.13C87.2201 95.45 87.5601 96.04 87.5601 96.67V122.45C87.5601 122.77 87.9101 122.97 88.1901 122.81L102.37 114.62C103.04 114.23 103.45 113.51 103.45 112.74V87.45C103.46 86.83 103.13 86.25 102.58 85.95Z" fill="url(#paint1_linear_57_169)"/>
<path d="M70.95 96.01L63.69 100.19L48.64 108.87C48.37 109.03 48.08 109.1 47.79 109.1V90.97L50.32 89.51L50.39 89.48L55.44 86.57C55.56 86.5 55.72 86.5 55.85 86.57L70.93 95.28C71.23 95.44 71.23 95.86 70.95 96.01Z" fill="url(#paint2_linear_57_169)"/>
<path d="M78.9401 109.77L63.69 118.57C61.04 120.11 58.3701 121.64 55.7201 123.18C53.3601 124.53 51.0101 125.89 48.6501 127.26C48.3901 127.42 48.09 127.49 47.8 127.49V145.86C48.1 145.86 48.3901 145.78 48.6501 145.63L63.7001 136.94L79.3601 127.91C79.49 127.84 79.57 127.7 79.57 127.55V110.13C79.57 109.81 79.2201 109.61 78.9401 109.77Z" fill="url(#paint3_linear_57_169)"/>
</g>
<defs>
<linearGradient id="paint0_linear_57_169" x1="0" y1="72.9323" x2="47.7961" y2="72.9323" gradientUnits="userSpaceOnUse">
<stop stop-color="#CB2A49"/>
<stop offset="1" stop-color="#EB4C41"/>
</linearGradient>
<linearGradient id="paint1_linear_57_169" x1="64.0578" y1="97.8967" x2="103.452" y2="97.8967" gradientUnits="userSpaceOnUse">
<stop stop-color="#CB2A49"/>
<stop offset="1" stop-color="#EB4C41"/>
</linearGradient>
<linearGradient id="paint2_linear_57_169" x1="47.7961" y1="97.8078" x2="71.1616" y2="97.8078" gradientUnits="userSpaceOnUse">
<stop stop-color="#CB2A49"/>
<stop offset="1" stop-color="#EB4C41"/>
</linearGradient>
<linearGradient id="paint3_linear_57_169" x1="47.7961" y1="127.792" x2="79.5692" y2="127.792" gradientUnits="userSpaceOnUse">
<stop stop-color="#CB2A49"/>
<stop offset="1" stop-color="#EB4C41"/>
</linearGradient>
<clipPath id="clip0_57_169">
<rect width="480" height="145.87" fill="white"/>
</clipPath>
</defs>
</svg>
